<svg xmlns="http://www.w3.org/2000/svg" width="300" height="600" viewBox="0 0 300 600">
<defs><linearGradient id="g" x1="0" y1="0" x2="1" y2="1"><stop offset="0" stop-color="#614385"/><stop offset="1" stop-color="#516395"/></linearGradient></defs>
<rect width="300" height="600" fill="url(#g)"/>
<circle cx="255.0" cy="72.0" r="114.0" fill="#fff" opacity=".09"/><circle cx="30.0" cy="570.0" r="126.0" fill="#fff" opacity=".07"/>
<circle cx="150.0" cy="132.0" r="87" fill="#fff" opacity=".15"/>
<g transform="translate(99.0,81.0) scale(4.250)" fill="#fff"><path d="M7 13c1.66 0 3-1.34 3-3S8.66 7 7 7s-3 1.34-3 3 1.34 3 3 3zm12-6h-8v7H3V5H1v15h2v-3h18v3h2v-9c0-2.21-1.79-4-4-4z"/></g>
<text x="28" y="246" font-family="Segoe UI,Helvetica,Arial,sans-serif" font-size="14" font-weight="700" letter-spacing="3" fill="#fff" opacity=".85">MEMBERS ONLY</text>
<text x="28" y="282" font-family="Segoe UI,Helvetica,Arial,sans-serif" font-size="36" font-weight="800" fill="#fff"><tspan x="28" dy="0">Sign in &amp;</tspan><tspan x="28" dy="40">save 10% on</tspan><tspan x="28" dy="40">hotels</tspan></text>
<text x="28" y="421" font-family="Segoe UI,Helvetica,Arial,sans-serif" font-size="17" fill="#fff" opacity=".92"><tspan x="28" dy="0">Use code WELCOME10 on your</tspan><tspan x="28" dy="24">first booking</tspan></text>
<rect x="28" y="514" width="244" height="54" rx="27" fill="#fff"/>
<text x="150.0" y="548" font-family="Segoe UI,Helvetica,Arial,sans-serif" font-size="19" font-weight="700" text-anchor="middle" fill="#614385">Join free →</text>
</svg>