<svg xmlns="http://www.w3.org/2000/svg" width="640" height="800" viewBox="0 0 640 800">
<defs><linearGradient id="g" x1="0" y1="0" x2="1" y2="1"><stop offset="0" stop-color="#00c6ff"/><stop offset="1" stop-color="#0072ff"/></linearGradient></defs>
<rect width="640" height="800" fill="url(#g)"/>
<circle cx="544.0" cy="96.0" r="243.2" fill="#fff" opacity=".09"/><circle cx="64.0" cy="760.0" r="268.8" fill="#fff" opacity=".07"/>
<circle cx="320.0" cy="176.0" r="185" fill="#fff" opacity=".15"/>
<g transform="translate(211.2,67.2) scale(9.067)" fill="#fff"><path d="M13.127 14.56l1.43-1.43 6.44 6.443L19.57 21zm4.293-5.73l2.86-2.86c-3.95-3.95-10.35-3.96-14.3-.02 3.93-1.3 8.31-.25 11.44 2.88zM5.95 5.98c-3.94 3.95-3.93 10.35.02 14.3l2.86-2.86C5.7 14.29 4.65 9.91 5.95 5.98zm.02-.02l-.01.01c-.38 3.01 1.17 6.88 4.3 10.02l5.73-5.73c-3.13-3.13-7.01-4.68-10.02-4.3z"/></g>
<text x="28" y="328" font-family="Segoe UI,Helvetica,Arial,sans-serif" font-size="14" font-weight="700" letter-spacing="3" fill="#fff" opacity=".85">EXCLUSIVE PACKAGE</text>
<text x="28" y="376" font-family="Segoe UI,Helvetica,Arial,sans-serif" font-size="44" font-weight="800" fill="#fff"><tspan x="28" dy="0">Maldives 4D/3N Water</tspan><tspan x="28" dy="49">Villa</tspan></text>
<text x="28" y="493" font-family="Segoe UI,Helvetica,Arial,sans-serif" font-size="20" fill="#fff" opacity=".92"><tspan x="28" dy="0">Flights, transfers &amp; breakfast from</tspan><tspan x="28" dy="28">৳1,19,999 per person</tspan></text>
<rect x="28" y="714" width="584" height="54" rx="27" fill="#fff"/>
<text x="320.0" y="748" font-family="Segoe UI,Helvetica,Arial,sans-serif" font-size="19" font-weight="700" text-anchor="middle" fill="#0072ff">Explore package →</text>
</svg>